<svg width="51" height="51" viewBox="0 0 51 51" fill="none" xmlns="http://www.w3.org/2000/svg">
<path id="Vector" d="M30.7657 12.5798C30.3153 13.0393 30.063 13.6571 30.063 14.3006C30.063 14.9441 30.3153 15.5619 30.7657 16.0215L34.6991 19.9548C35.1586 20.4052 35.7764 20.6575 36.4199 20.6575C37.0634 20.6575 37.6812 20.4052 38.1407 19.9548L47.4087 10.6869C48.6448 13.4185 49.0191 16.4621 48.4816 19.4119C47.9442 22.3616 46.5205 25.0776 44.4003 27.1977C42.2802 29.3179 39.5643 30.7415 36.6145 31.279C33.6647 31.8165 30.6212 31.4422 27.8895 30.206L10.9024 47.1931C9.92443 48.1711 8.59799 48.7205 7.21491 48.7205C5.83183 48.7205 4.5054 48.1711 3.52741 47.1931C2.54943 46.2151 2 44.8887 2 43.5056C2 42.1225 2.54943 40.7961 3.52741 39.8181L20.5145 22.831C19.2784 20.0994 18.9041 17.0558 19.4415 14.1061C19.979 11.1563 21.4027 8.44033 23.5228 6.32018C25.643 4.20003 28.3589 2.77637 31.3087 2.23891C34.2585 1.70145 37.302 2.07573 40.0337 3.31187L30.7903 12.5552L30.7657 12.5798Z" stroke="black" stroke-width="4" stroke-linecap="round" stroke-linejoin="round"/>
</svg>
