<svg width="67" height="67" viewBox="0 0 67 67" fill="none" xmlns="http://www.w3.org/2000/svg">
<g id="Group 45">
<path id="Vector" d="M33.4998 41.8182C38.0938 41.8182 41.818 38.094 41.818 33.5C41.818 28.906 38.0938 25.1819 33.4998 25.1819C28.9058 25.1819 25.1816 28.906 25.1816 33.5C25.1816 38.094 28.9058 41.8182 33.4998 41.8182Z" stroke="#FEFFFA" stroke-width="5.5" stroke-linecap="round" stroke-linejoin="round"/>
<path id="Vector_2" d="M54.0182 41.8182C53.6491 42.6545 53.539 43.5822 53.7021 44.4816C53.8652 45.3811 54.294 46.2111 54.9332 46.8645L55.0995 47.0309C55.6151 47.5459 56.0242 48.1575 56.3032 48.8307C56.5823 49.5039 56.726 50.2256 56.726 50.9543C56.726 51.6831 56.5823 52.4047 56.3032 53.0779C56.0242 53.7511 55.6151 54.3627 55.0995 54.8777C54.5845 55.3933 53.9729 55.8024 53.2997 56.0814C52.6265 56.3605 51.9049 56.5041 51.1761 56.5041C50.4474 56.5041 49.7258 56.3605 49.0526 56.0814C48.3794 55.8024 47.7677 55.3933 47.2527 54.8777L47.0864 54.7114C46.4329 54.0721 45.6029 53.6433 44.7034 53.4803C43.804 53.3172 42.8763 53.4273 42.04 53.7964C41.2199 54.1478 40.5205 54.7315 40.0279 55.4753C39.5352 56.2192 39.2708 57.091 39.2673 57.9832V58.4545C39.2673 59.9253 38.683 61.3358 37.643 62.3758C36.6031 63.4157 35.1926 64 33.7218 64C32.2511 64 30.8406 63.4157 29.8006 62.3758C28.7606 61.3358 28.1764 59.9253 28.1764 58.4545V58.205C28.1549 57.2872 27.8578 56.3972 27.3238 55.6505C26.7897 54.9038 26.0434 54.3351 25.1818 54.0182C24.3455 53.6491 23.4178 53.539 22.5184 53.7021C21.6189 53.8652 20.7889 54.294 20.1355 54.9332L19.9691 55.0995C19.4541 55.6151 18.8425 56.0242 18.1693 56.3032C17.4961 56.5823 16.7744 56.726 16.0457 56.726C15.3169 56.726 14.5953 56.5823 13.9221 56.3032C13.2489 56.0242 12.6373 55.6151 12.1223 55.0995C11.6067 54.5845 11.1976 53.9729 10.9186 53.2997C10.6395 52.6265 10.4959 51.9049 10.4959 51.1761C10.4959 50.4474 10.6395 49.7258 10.9186 49.0526C11.1976 48.3794 11.6067 47.7677 12.1223 47.2527L12.2886 47.0864C12.9279 46.4329 13.3567 45.6029 13.5197 44.7034C13.6828 43.804 13.5727 42.8763 13.2036 42.04C12.8522 41.2199 12.2685 40.5205 11.5247 40.0279C10.7808 39.5352 9.90904 39.2708 9.01682 39.2673H8.54545C7.07471 39.2673 5.6642 38.683 4.62423 37.643C3.58425 36.6031 3 35.1926 3 33.7218C3 32.2511 3.58425 30.8406 4.62423 29.8006C5.6642 28.7606 7.07471 28.1764 8.54545 28.1764H8.795C9.71276 28.1549 10.6028 27.8578 11.3495 27.3238C12.0962 26.7897 12.6649 26.0434 12.9818 25.1818C13.3509 24.3455 13.461 23.4178 13.2979 22.5184C13.1348 21.6189 12.706 20.7889 12.0668 20.1355L11.9005 19.9691C11.3849 19.4541 10.9758 18.8425 10.6968 18.1693C10.4177 17.4961 10.274 16.7744 10.274 16.0457C10.274 15.3169 10.4177 14.5953 10.6968 13.9221C10.9758 13.2489 11.3849 12.6373 11.9005 12.1223C12.4155 11.6067 13.0271 11.1976 13.7003 10.9186C14.3735 10.6395 15.0951 10.4959 15.8239 10.4959C16.5526 10.4959 17.2742 10.6395 17.9474 10.9186C18.6206 11.1976 19.2322 11.6067 19.7473 12.1223L19.9136 12.2886C20.5671 12.9279 21.3971 13.3567 22.2965 13.5197C23.196 13.6828 24.1237 13.5727 24.96 13.2036H25.1818C26.0019 12.8522 26.7013 12.2685 27.194 11.5247C27.6866 10.7808 27.951 9.90904 27.9545 9.01682V8.54545C27.9545 7.07471 28.5388 5.6642 29.5788 4.62423C30.6187 3.58425 32.0293 3 33.5 3C34.9707 3 36.3813 3.58425 37.4212 4.62423C38.4612 5.6642 39.0455 7.07471 39.0455 8.54545V8.795C39.049 9.68723 39.3134 10.5589 39.806 11.3028C40.2987 12.0467 40.9981 12.6303 41.8182 12.9818C42.6545 13.3509 43.5822 13.461 44.4816 13.2979C45.3811 13.1348 46.2111 12.706 46.8645 12.0668L47.0309 11.9005C47.5459 11.3849 48.1575 10.9758 48.8307 10.6968C49.5039 10.4177 50.2256 10.274 50.9543 10.274C51.6831 10.274 52.4047 10.4177 53.0779 10.6968C53.7511 10.9758 54.3627 11.3849 54.8777 11.9005C55.3933 12.4155 55.8024 13.0271 56.0814 13.7003C56.3605 14.3735 56.5041 15.0951 56.5041 15.8239C56.5041 16.5526 56.3605 17.2742 56.0814 17.9474C55.8024 18.6206 55.3933 19.2322 54.8777 19.7473L54.7114 19.9136C54.0721 20.5671 53.6433 21.3971 53.4803 22.2965C53.3172 23.196 53.4273 24.1237 53.7964 24.96V25.1818C54.1478 26.0019 54.7315 26.7013 55.4753 27.194C56.2192 27.6866 57.091 27.951 57.9832 27.9545H58.4545C59.9253 27.9545 61.3358 28.5388 62.3758 29.5788C63.4157 30.6187 64 32.0293 64 33.5C64 34.9707 63.4157 36.3813 62.3758 37.4212C61.3358 38.4612 59.9253 39.0455 58.4545 39.0455H58.205C57.3128 39.049 56.4411 39.3134 55.6972 39.806C54.9533 40.2987 54.3697 40.9981 54.0182 41.8182Z" stroke="#FEFFFA" stroke-width="5.5" stroke-linecap="round" stroke-linejoin="round"/>
</g>
</svg>
