<svg width="69" height="69" viewBox="0 0 69 69" fill="none" xmlns="http://www.w3.org/2000/svg">
<g id="share-2 1">
<path id="Vector" d="M51.75 23C56.5135 23 60.375 19.1385 60.375 14.375C60.375 9.61154 56.5135 5.75 51.75 5.75C46.9865 5.75 43.125 9.61154 43.125 14.375C43.125 19.1385 46.9865 23 51.75 23Z" stroke="#FEFFFA" stroke-width="6.25" stroke-linecap="round" stroke-linejoin="round"/>
<path id="Vector_2" d="M17.25 43.125C22.0135 43.125 25.875 39.2635 25.875 34.5C25.875 29.7365 22.0135 25.875 17.25 25.875C12.4865 25.875 8.625 29.7365 8.625 34.5C8.625 39.2635 12.4865 43.125 17.25 43.125Z" stroke="#FEFFFA" stroke-width="6.25" stroke-linecap="round" stroke-linejoin="round"/>
<path id="Vector_3" d="M51.75 63.25C56.5135 63.25 60.375 59.3885 60.375 54.625C60.375 49.8615 56.5135 46 51.75 46C46.9865 46 43.125 49.8615 43.125 54.625C43.125 59.3885 46.9865 63.25 51.75 63.25Z" stroke="#FEFFFA" stroke-width="6.25" stroke-linecap="round" stroke-linejoin="round"/>
<path id="Vector_4" d="M24.6963 38.8412L44.3325 50.2837" stroke="#FEFFFA" stroke-width="6.25" stroke-linecap="round" stroke-linejoin="round"/>
<path id="Vector_5" d="M44.3038 18.7162L24.6963 30.1587" stroke="#FEFFFA" stroke-width="6.25" stroke-linecap="round" stroke-linejoin="round"/>
</g>
</svg>
